<?xml version="1.0" standalone="no"?>
<!DOCTYPE svg PUBLIC "-//W3C//DTD SVG 20010904//EN"
 "http://www.w3.org/TR/2001/REC-SVG-20010904/DTD/svg10.dtd">
<svg version="1.0" xmlns="http://www.w3.org/2000/svg"
 width="832.000000pt" height="219.000000pt" viewBox="0 0 832.000000 219.000000"
 preserveAspectRatio="xMidYMid meet">

<g transform="translate(0.000000,219.000000) scale(0.100000,-0.100000)"
fill="#000000" stroke="none">
<path d="M964 1857 c-12 -7 -97 -86 -189 -175 l-168 -164 209 -209 c115 -115
211 -209 214 -209 3 0 100 92 216 205 l209 204 -165 166 c-91 92 -177 173
-192 181 -33 17 -105 18 -134 1z"/>
<path d="M3878 1703 c-3 -4 -5 -32 -6 -60 -2 -48 0 -53 22 -59 17 -4 130 0
154 5 2 1 2 27 0 59 l-3 57 -82 3 c-45 1 -83 -1 -85 -5z"/>
<path d="M5238 1593 l-3 -118 -55 -5 -55 -5 0 -60 0 -60 58 -3 57 -3 0 -212
c0 -119 5 -229 11 -250 14 -52 69 -110 127 -135 52 -22 200 -38 257 -28 35 7
35 7 35 60 l0 54 -67 7 c-81 8 -120 23 -153 59 -25 27 -25 30 -28 236 -4 238
-9 224 91 219 29 -1 73 -1 100 -1 l47 2 0 54 c0 40 -4 55 -16 60 -9 3 -60 6
-114 6 -68 0 -101 4 -107 13 -4 6 -8 59 -9 117 l-1 105 -86 3 -86 3 -3 -118z"/>
<path d="M2430 1460 c-19 -5 -47 -22 -62 -39 l-28 -31 0 -460 0 -460 90 0 90
0 0 120 c0 100 2 120 15 120 197 0 366 10 405 24 105 39 156 96 184 204 21 79
21 247 0 318 -32 113 -120 183 -254 204 -76 12 -389 12 -440 0z m435 -144 c66
-35 85 -86 85 -226 0 -138 -16 -184 -76 -221 -36 -22 -51 -24 -197 -27 l-157
-4 2 243 3 243 24 13 c17 8 62 10 150 6 102 -4 134 -9 166 -27z"/>
<path d="M3565 1460 c-93 -8 -157 -33 -203 -79 -65 -65 -66 -76 -67 -386 l0
-280 85 0 85 0 5 255 c5 244 6 257 28 292 25 41 91 78 139 78 17 0 51 3 77 6
l46 7 0 53 c0 30 -1 54 -2 54 -35 6 -131 6 -193 0z"/>
<path d="M3875 1458 c-3 -7 -4 -177 -3 -378 l3 -365 85 0 85 0 0 375 0 375
-83 3 c-60 2 -84 -1 -87 -10z"/>
<path d="M4309 1461 c-51 -17 -68 -32 -79 -69 -11 -39 -15 -639 -4 -666 5 -13
22 -16 84 -16 44 0 81 4 84 9 4 5 6 140 7 299 0 228 3 294 14 308 12 17 29 19
157 19 131 -1 146 -3 184 -24 67 -38 68 -45 74 -341 l5 -265 85 0 85 0 3 270
c3 312 -1 339 -63 400 -69 69 -106 77 -375 81 -129 2 -247 0 -261 -5z"/>
<path d="M5895 1466 c-5 -2 -22 -7 -36 -10 -14 -3 -38 -18 -52 -32 l-27 -27 0
-464 0 -464 83 3 82 3 7 113 c3 63 9 117 13 120 4 4 86 8 183 10 223 3 279 18
345 92 63 70 81 133 79 288 -1 164 -25 232 -106 299 -64 52 -125 64 -355 69
-113 2 -210 2 -216 0z m381 -137 c83 -25 120 -116 112 -279 -7 -136 -46 -189
-157 -210 -66 -12 -241 -13 -260 -1 -19 12 -24 118 -14 321 8 162 8 165 33
177 28 14 231 8 286 -8z"/>
<path d="M7495 1456 c-119 -29 -188 -91 -221 -198 -26 -87 -27 -270 0 -347 25
-74 93 -141 172 -171 83 -32 325 -41 441 -15 134 29 189 74 241 198 23 55 26
75 25 182 0 104 -3 127 -24 175 -30 69 -44 89 -90 123 -62 46 -169 67 -343 66
-83 0 -173 -6 -201 -13z m380 -133 c80 -42 104 -93 105 -228 0 -113 -10 -149
-57 -197 -47 -48 -110 -68 -217 -68 -191 0 -264 65 -274 244 -5 114 9 170 54
212 54 51 102 64 234 61 94 -2 122 -7 155 -24z"/>
<path d="M385 1298 c-249 -248 -249 -249 7 -501 l171 -168 211 210 211 211
-205 205 c-113 113 -211 205 -218 205 -7 0 -87 -73 -177 -162z"/>
<path d="M1283 1256 l-208 -205 205 -205 c113 -114 210 -206 217 -206 7 0 86
74 175 165 249 253 249 250 0 492 -92 90 -170 163 -174 163 -4 0 -101 -92
-215 -204z"/>
<path d="M6890 1440 c-30 -11 -71 -37 -92 -57 -62 -60 -68 -96 -68 -399 l0
-262 28 -3 c15 -2 55 -3 90 -1 l63 4 -7 221 c-7 236 -2 282 37 331 33 42 89
65 178 72 l82 7 -3 51 -3 51 -125 2 c-103 2 -134 -1 -180 -17z"/>
<path d="M821 796 c-111 -112 -201 -209 -200 -217 2 -8 78 -87 169 -175 174
-171 207 -192 269 -174 47 13 53 18 226 190 l166 164 -208 208 c-114 114 -210
208 -213 208 -3 0 -97 -92 -209 -204z"/>
</g>
</svg>
